<svg id="Capa_1" enable-background="new 0 0 512 512" height="512" viewBox="0 0 512 512" width="512" xmlns="http://www.w3.org/2000/svg"><g><path d="m199.855 24.209h-38.117c-8.534 0-15.453 6.918-15.453 15.453v25.755h69.022v-25.755c.001-8.534-6.918-15.453-15.452-15.453z" fill="#ddeafb"/><path d="m215.308 39.662v25.755h-30.905v-25.755c0-8.53-6.923-15.453-15.453-15.453h30.905c8.53 0 15.453 6.923 15.453 15.453z" fill="#bed8fb"/><path d="m402.028 299.654 21.834-10.426c25.517-12.115 41.78-37.838 41.78-66.085 0-14.831-4.508-29.311-12.925-41.522l-12.14-17.61c-13.654-19.806-36.173-31.633-60.229-31.633h-61.506l-31.937-46.358h98.772c35.556 0 68.842 17.474 89.034 46.74l17.243 24.991c13.055 18.922 20.046 41.366 20.046 64.354v1.237c0 43.928-25.388 83.899-65.15 102.572l-34.541 16.213z" fill="#8b818e"/><path d="m512 222.107v1.236c0 43.927-25.384 83.898-65.149 102.575l-34.542 16.205-3.152-13.021 6.789-3.183c39.765-18.677 65.149-58.648 65.149-102.575v-1.236c0-22.994-6.995-45.431-20.047-64.355l-17.245-24.992c-20.192-29.267-53.477-46.739-89.028-46.739h30.905c35.552 0 68.837 17.472 89.028 46.739l17.245 24.992c13.052 18.923 20.047 41.36 20.047 64.354z" fill="#756e78"/><path d="m251.364 55.115h-141.135c-11.379 0-20.604 9.225-20.604 20.604v20.604h182.342v-20.605c.001-11.379-9.224-20.603-20.603-20.603z" fill="#8b818e"/><path d="m271.968 75.718v20.604h-30.905v-20.604c0-11.383-9.22-20.604-20.604-20.604h30.905c11.384.001 20.604 9.221 20.604 20.604z" fill="#756e78"/><path d="m357.543 487.791h-301.983c-13.181 0-22.972-12.206-20.113-25.073l1.145-5.151c2.095-9.427 10.456-16.134 20.113-16.134l146.756-10.302 152.937 10.302c9.657 0 18.018 6.707 20.113 16.134l1.145 5.151c2.859 12.867-6.932 25.073-20.113 25.073z" fill="#8b818e"/><path d="m357.545 487.791h-30.905c13.176 0 22.973-12.208 20.109-25.075l-1.144-5.151c-2.091-9.426-10.456-16.133-20.109-16.133h30.905c9.653 0 18.018 6.707 20.109 16.133l1.144 5.151c2.864 12.867-6.933 25.075-20.109 25.075z" fill="#756e78"/><path d="m381.514 206.221-59.463-100.236c-7.417-12.534-20.899-19.965-35.464-19.965h-248.117c-9.177 0-13.818 10.882-7.286 17.328 9.099 8.977 19.063 20.936 25.453 35.366 4.032 9.106 3.369 19.546-1.702 28.116l-23.347 39.423c-20.678 34.947-31.588 74.776-31.588 115.383v68.288c0 28.448 23.061 51.509 51.509 51.509h310.085c28.448 0 51.509-23.061 51.509-51.509v-68.288c0-40.607-10.91-80.468-31.589-115.415z" fill="#ecf4ff"/><path d="m413.103 321.633v68.291c0 28.443-23.066 51.509-51.509 51.509h-30.905c3.533 0 6.985-.361 10.312-1.04 23.509-4.77 41.197-25.559 41.197-50.469v-68.291c0-40.599-10.91-80.467-31.585-115.411l-59.463-100.237c-7.417-12.537-20.902-19.965-35.469-19.965h30.905c14.567 0 28.052 7.428 35.469 19.965l59.462 100.237c20.676 34.943 31.586 74.811 31.586 115.411z" fill="#ddeafb"/><path d="m356.443 410.527h-299.783c-14.224 0-25.755-11.531-25.755-25.755v-53.57c0-26.508 5.384-52.739 15.826-77.104l9.728-22.698c3.247-7.576 10.696-12.487 18.938-12.487h262.309c8.242 0 15.691 4.912 18.938 12.487l9.728 22.698c10.442 24.364 15.826 50.596 15.826 77.104v53.57c-.001 14.224-11.532 25.755-25.755 25.755z" fill="#aa7a63"/><g fill="#986b54"><path d="m382.197 331.203v53.569c0 14.227-11.528 25.755-25.755 25.755h-30.905c14.227 0 25.755-11.528 25.755-25.755v-53.569c0-26.507-5.388-52.745-15.824-77.109l-9.735-22.695c-3.245-7.572-10.693-12.486-18.935-12.486h30.905c8.241 0 15.69 4.914 18.935 12.486l9.735 22.695c10.436 24.364 15.824 50.603 15.824 77.109z"/><path d="m206.551 374.986c-8.534 0-15.453-6.918-15.453-15.453 0-8.534 6.918-15.453 15.453-15.453 8.534 0 15.453 6.918 15.453 15.453 0 8.535-6.918 15.453-15.453 15.453z"/><path d="m122.076 329.658c-8.534 0-15.453-6.918-15.453-15.453 0-8.534 6.918-15.453 15.453-15.453 8.534 0 15.453 6.918 15.453 15.453 0 8.535-6.918 15.453-15.453 15.453z"/><path d="m291.026 327.598c-8.534 0-15.453-6.918-15.453-15.453 0-8.534 6.918-15.453 15.453-15.453 8.534 0 15.453 6.918 15.453 15.453 0 8.534-6.919 15.453-15.453 15.453z"/><path d="m206.551 282.27c-8.534 0-15.453-6.918-15.453-15.453 0-8.534 6.918-15.453 15.453-15.453 8.534 0 15.453 6.918 15.453 15.453 0 8.534-6.918 15.453-15.453 15.453z"/></g></g></svg>